<svg xmlns:svg="http://www.w3.org/2000/svg" xmlns="http://www.w3.org/2000/svg" width="750" height="128" version="1.1">
  <style>.s0{fill:#000;}</style>
  <path d="m37 7 9-6 3 118-9 6zM637 7 646 1 649 119l-9 6zM659 7 668 1 671 119l-9 6zM681 7 690 1 693 119l-9 6zM703 7 712 1 715 119l-9 6zM746.4 101l-7 7-132-85 7-7zM187 7l9-6L199 119l-9 6zM209 7l9-6L221 119l-9 6zM337 7l9-6L349 119l-9 6zM359 7l9-6L371 119l-9 6zM381 7l9-6L393 119l-9 6zM487 7l9-6L499 119l-9 6zM509 7l9-6L521 119l-9 6zM531 7l9-6L543 119l-9 6zM553 7l9-6L565 119l-9 6z" fill="#000"/></svg>